<svg width="58" height="61" viewBox="0 0 58 61" fill="none" xmlns="http://www.w3.org/2000/svg">
<path d="M48.0799 41.0544L45.968 46.3385C44.8484 49.129 42.1427 50.961 39.1403 50.961H33.8477C33.7714 50.961 33.7035 50.927 33.6527 50.8677C33.6018 50.8083 33.5848 50.732 33.6018 50.6641L34.2124 47.3224C34.2379 47.2036 34.3397 47.1103 34.4584 47.1103H39.1403C40.5737 47.1103 41.8629 46.2367 42.3972 44.9051L43.6949 41.6567L10.5912 25.4737C10.8711 27.1531 11.804 28.6543 13.2035 29.6213L14.5945 30.5118C14.7047 30.5881 14.7472 30.7324 14.6793 30.8511L13.0593 33.7433C13.0254 33.8027 12.966 33.8451 12.8982 33.8621C12.8303 33.879 12.7625 33.8621 12.7031 33.8281L11.0152 32.7849C7.5802 30.3931 5.94324 26.0674 6.93559 22.0302V21.9793L7.13067 21.3687C7.37664 20.5459 8.29265 20.1219 9.08144 20.4696L9.65819 20.7241L47.3759 39.2309C48.046 39.5617 48.3513 40.359 48.0799 41.0544ZM33.4406 39.7653L30.3194 38.2385C30.2515 38.2046 30.1667 38.2046 30.0904 38.2385C30.0225 38.2725 29.9716 38.3403 29.9547 38.4167L28.3771 47.1103H14.6623C14.569 47.1103 14.4842 47.1612 14.4418 47.2376L12.5589 50.5793C12.5165 50.6557 12.5165 50.7574 12.5589 50.8338C12.6013 50.9101 12.6861 50.961 12.7794 50.961H27.6731L25.9768 60.2907C25.9598 60.3671 25.9768 60.4434 26.0277 60.4943C26.0786 60.5452 26.1464 60.5876 26.2228 60.5876H29.6239C29.7426 60.5876 29.8529 60.5028 29.8699 60.3756L33.5678 40.0197C33.5848 39.9095 33.5339 39.7992 33.4321 39.7483L33.4406 39.7653ZM19.87 33.2005C19.8531 33.1326 19.8022 33.0817 19.7428 33.0478L16.7318 31.572C16.6131 31.5126 16.4689 31.555 16.4011 31.6738L0.345384 60.2144C0.302976 60.2908 0.302976 60.3925 0.345384 60.4689C0.387792 60.5452 0.472608 60.5961 0.565906 60.5961H4.40807C4.50137 60.5961 4.58619 60.5452 4.6286 60.4689L19.8531 33.4041C19.887 33.3447 19.8955 33.2683 19.87 33.2005ZM57.1891 29.9605L44.7721 28.3235L46.8416 22.9801C46.8585 22.9292 46.8416 22.8699 46.7992 22.836C46.7567 22.802 46.6974 22.802 46.6465 22.836L40.4804 27.0174C39.5304 27.662 38.3091 27.7638 37.2743 27.2718L31.4559 24.5662C30.5399 24.1421 29.8699 23.294 29.6578 22.3101L27.1642 10.6055C27.1557 10.5461 27.0964 10.5037 27.037 10.5037C26.9776 10.5037 26.9267 10.5461 26.9098 10.6055L25.1795 18.1287L19.904 8.30697C19.1406 6.88206 18.7165 5.79641 17.6563 4.56657L14.2128 0.0458871C14.1789 0.00347905 14.111 -0.0134914 14.0601 0.0119534C14.0093 0.0373982 13.9838 0.0967809 13.9923 0.156152L14.5097 5.63526L0.150306 2.70063C0.0909344 2.68367 0.0230815 2.72606 0.0061183 2.78543C-0.0108449 2.8448 0.00611824 2.91267 0.0739711 2.93812L16.5368 10.9448C17.1559 11.2416 17.6563 11.7335 17.9786 12.3357L23.2881 22.2253C24.4247 24.3372 26.1888 26.0335 28.3432 27.0938L36.4686 31.0801C37.9444 31.801 39.5219 32.1997 41.1589 32.2421C41.2691 32.2421 41.3794 32.2421 41.4897 32.2421C42.007 32.2421 42.5329 32.2082 43.0503 32.1318L57.1637 30.2065C57.223 30.198 57.2739 30.1471 57.2739 30.0792C57.2739 30.0199 57.223 29.9605 57.1637 29.952L57.1891 29.9605Z" fill="url(#paint0_linear_2555_15653)"/>
<defs>
<linearGradient id="paint0_linear_2555_15653" x1="-2.67857" y1="5.7398" x2="31.3776" y2="49.3622" gradientUnits="userSpaceOnUse">
<stop stop-color="#F7E688"/>
<stop offset="1" stop-color="#B1893F"/>
</linearGradient>
</defs>
</svg>
